<?xml version="1.0" encoding="UTF-8" standalone="no"?>
<svg
   id="Layer_1"
   data-name="Layer 1"
   viewBox="0 0 639.98999 200.60001"
   version="1.1"
   sodipodi:docname="logo_lais_site.svg"
   width="639.98999"
   height="200.60001"
   inkscape:version="1.1.2 (b8e25be833, 2022-02-05)"
   xmlns:inkscape="http://www.inkscape.org/namespaces/inkscape"
   xmlns:sodipodi="http://sodipodi.sourceforge.net/DTD/sodipodi-0.dtd"
   xmlns="http://www.w3.org/2000/svg"
   xmlns:svg="http://www.w3.org/2000/svg">
  <sodipodi:namedview
     id="namedview25"
     pagecolor="#505050"
     bordercolor="#eeeeee"
     borderopacity="1"
     inkscape:pageshadow="0"
     inkscape:pageopacity="0"
     inkscape:pagecheckerboard="0"
     showgrid="false"
     fit-margin-top="0"
     fit-margin-left="0"
     fit-margin-right="0"
     fit-margin-bottom="0"
     inkscape:zoom="0.44532077"
     inkscape:cx="266.10032"
     inkscape:cy="50.525377"
     inkscape:window-width="1920"
     inkscape:window-height="991"
     inkscape:window-x="-9"
     inkscape:window-y="-9"
     inkscape:window-maximized="1"
     inkscape:current-layer="Layer_1" />
  <defs
     id="defs4">
    <style
       id="style2">
      .cls-1 {
        fill: #035c8c;
      }
    </style>
  </defs>
  <g
     id="g14"
     transform="translate(-177,-92.7)">
    <path
       class="cls-1"
       d="m 411.52,123.53 h 10.68 c 2.53,0 4.58,2.06 4.58,4.58 v 114.21 c 0,1.59 1.3,2.89 2.89,2.89 h 67.75 c 2.53,0 4.58,2.06 4.58,4.58 v 8.12 c 0,2.53 -2.06,4.58 -4.58,4.58 h -85.91 c -2.53,0 -4.58,-2.06 -4.58,-4.58 v -129.8 c 0,-2.53 2.06,-4.58 4.58,-4.58 v 0 z"
       id="path6" />
    <path
       class="cls-1"
       d="m 612.01,227.74 h -70.03 c -1.16,0 -2.2,0.69 -2.67,1.73 l -13.32,30.25 c -0.72,1.66 -2.38,2.74 -4.19,2.74 h -10.36 c -3.32,0 -5.52,-3.43 -4.15,-6.46 l 58.77,-129.77 c 0.76,-1.62 2.38,-2.67 4.15,-2.67 h 13.75 c 1.8,0 3.43,1.05 4.15,2.67 L 647.06,256 c 1.37,3.03 -0.83,6.46 -4.15,6.46 h -10.76 c -1.8,0 -3.47,-1.08 -4.19,-2.74 l -13.32,-30.25 c -0.47,-1.05 -1.52,-1.73 -2.67,-1.73 z m -6.43,-19.06 -26.5,-60.21 c -0.79,-1.8 -3.36,-1.8 -4.15,0 l -26.5,60.21 c -0.65,1.48 0.43,3.18 2.06,3.18 h 52.99 c 1.62,0 2.71,-1.66 2.06,-3.18 z"
       id="path8" />
    <path
       class="cls-1"
       d="m 670.52,123.53 h 10.68 c 2.53,0 4.58,2.06 4.58,4.58 v 129.77 c 0,2.53 -2.06,4.58 -4.58,4.58 h -10.68 c -2.53,0 -4.58,-2.06 -4.58,-4.58 V 128.11 c 0,-2.53 2.06,-4.58 4.58,-4.58 z"
       id="path10" />
    <path
       class="cls-1"
       d="m 732.93,259.18 c -8.16,-2.71 -14.87,-6.14 -20.11,-10.22 -1.7,-1.34 -2.24,-3.65 -1.3,-5.56 l 3.36,-7.08 c 1.19,-2.56 4.44,-3.47 6.75,-1.84 4.51,3.25 9.89,5.96 16.1,8.19 8.27,2.96 16.79,4.48 25.48,4.48 11.51,0 20.11,-1.95 25.81,-5.85 5.7,-3.9 8.52,-9.1 8.52,-15.59 0,-4.76 -1.55,-8.63 -4.66,-11.62 -3.1,-2.96 -6.93,-5.27 -11.51,-6.86 -4.55,-1.59 -11.01,-3.36 -19.35,-5.34 -10.47,-2.53 -18.88,-5.02 -25.3,-7.54 -6.43,-2.53 -11.91,-6.39 -16.46,-11.62 -4.55,-5.23 -6.86,-12.27 -6.86,-21.15 0,-7.4 1.95,-14.08 5.85,-20.03 3.9,-5.96 9.82,-10.72 17.76,-14.29 7.94,-3.57 17.8,-5.34 29.56,-5.34 8.19,0 16.28,1.05 24.22,3.18 6.43,1.7 12.13,4.04 17.07,6.97 1.99,1.16 2.78,3.57 1.91,5.7 l -3.1,7.51 c -1.05,2.53 -4.01,3.57 -6.39,2.27 -4.51,-2.45 -9.28,-4.4 -14.26,-5.85 -6.61,-1.91 -13.1,-2.89 -19.46,-2.89 -11.26,0 -19.67,2.06 -25.3,6.14 -5.63,4.12 -8.45,9.39 -8.45,15.88 0,4.76 1.59,8.63 4.76,11.62 3.18,2.96 7.11,5.31 11.8,6.93 4.69,1.66 11.08,3.39 19.17,5.27 10.43,2.53 18.84,5.02 25.2,7.54 6.35,2.53 11.8,6.35 16.39,11.51 4.55,5.16 6.86,12.09 6.86,20.83 0,7.29 -1.99,13.93 -5.96,19.96 -3.97,6.03 -10,10.79 -18.05,14.29 -8.09,3.5 -18.01,5.27 -29.78,5.27 -10.47,0 -20.54,-1.62 -30.25,-4.87 h -0.04 z"
       id="path12" />
  </g>
  <g
     id="g22"
     transform="translate(-177,-92.7)">
    <path
       class="cls-1"
       d="m 370.05,185.4 c -4.19,0 -7.58,3.39 -7.58,7.58 0,46.93 -38.19,85.12 -85.12,85.12 -35.66,0 -67.83,-22.52 -80.03,-55.99 -0.69,-1.91 -2.09,-3.43 -3.93,-4.3 -1.84,-0.87 -3.9,-0.94 -5.81,-0.25 -3.93,1.44 -5.96,5.81 -4.55,9.75 14.37,39.49 52.27,65.99 94.29,65.99 55.3,0 100.31,-45.01 100.31,-100.31 0,-4.19 -3.39,-7.58 -7.58,-7.58 z"
       id="path16" />
    <path
       class="cls-1"
       d="m 370.05,185.4 h -47.5 L 305.4,147.06 c -1.26,-2.82 -4.12,-4.55 -7.22,-4.48 -3.1,0.11 -5.81,2.06 -6.86,4.98 L 271.68,201.53 256.7,164.1 c -1.12,-2.82 -3.83,-4.69 -6.86,-4.76 h -0.18 c -2.96,0 -5.7,1.73 -6.93,4.44 l -9.78,21.59 h -48.33 c -4.19,0 -7.58,3.39 -7.58,7.58 0,4.19 3.39,7.58 7.58,7.58 h 53.24 c 2.96,0 5.7,-1.73 6.93,-4.44 l 4.44,-9.82 15.74,39.35 c 1.16,2.89 3.93,4.76 7.04,4.76 h 0.11 c 3.14,-0.04 5.96,-2.06 7,-4.98 l 20.03,-55.05 11.51,25.7 c 1.23,2.74 3.93,4.48 6.93,4.48 H 370 c 4.19,0 7.58,-3.39 7.58,-7.58 0,-4.19 -3.39,-7.58 -7.58,-7.58 l 0.04,0.04 z"
       id="path18" />
    <path
       class="cls-1"
       d="M 371.6,158.69 C 357.23,119.2 319.33,92.7 277.31,92.7 222.01,92.7 177,137.71 177,193.01 c 0,4.19 3.39,7.58 7.58,7.58 4.19,0 7.58,-3.39 7.58,-7.58 0,-46.93 38.19,-85.12 85.12,-85.12 35.66,0 67.83,22.49 80.03,55.99 0.69,1.91 2.09,3.43 3.93,4.3 1.84,0.87 3.9,0.94 5.81,0.25 1.91,-0.69 3.43,-2.09 4.3,-3.93 0.87,-1.84 0.94,-3.9 0.25,-5.81 z"
       id="path20" />
  </g>
</svg>
